# xmcd
#
# Track frame offsets:
#	150
#	17460
#	31013
#	43541
#	61098
#	79063
#	90233
#	106540
#	119328
#	135073
#	148048
#	162304
#	175649
#
# Disc length: 2584 seconds
#
# Revision: 1
# Processed by: cddbd v1.5.2PL0 Copyright (c) Steve Scherf et al.
# Submitted via: audiograbber 1.83.01
#
DISCID=860a160d
DTITLE=Various Artist - Cadillac Records (O.S.T.) CD1
DYEAR=2008
DGENRE=Blues
TTITLE0=I´m a Man - Jeffrey Wright
TTITLE1=At Last  - Beyoncé
TTITLE2=No Particular Place To Go - Mos Def
TTITLE3=I´m Your Hoochie Coochie Man - Jeffrey Wright
TTITLE4=Once In a Lifetime - Beyoncé
TTITLE5=Let´s Take a Walk - Raphael Saadiq
TTITLE6=6 O'Clock Blues - Solange
TTITLE7=Nadine - Mos Def
TTITLE8=The Sound - Mary Mary
TTITLE9=Last Night - Little Walter
TTITLE10=I´d Rather Go Blind  -  Beyoncé
TTITLE11=My Babe - Columbus Short
TTITLE12=Brindging The Gap - Nas Featuring Olu Dara
EXTD=
EXTT0=
EXTT1=
EXTT2=
EXTT3=
EXTT4=
EXTT5=
EXTT6=
EXTT7=
EXTT8=
EXTT9=
EXTT10=
EXTT11=
EXTT12=
PLAYORDER=
